<?xml version="1.0" encoding="utf-8"?>
<!-- Generator: Adobe Illustrator 23.0.1, SVG Export Plug-In . SVG Version: 6.00 Build 0)  -->
<svg version="1.1" id="Layer_1" xmlns="http://www.w3.org/2000/svg" xmlns:xlink="http://www.w3.org/1999/xlink" x="0px" y="0px"
	 viewBox="0 0 1024 768" style="enable-background:new 0 0 1024 768;" xml:space="preserve">
<style type="text/css">
	.st0{fill:none;stroke:#F46700;stroke-miterlimit:10;}
	.st1{fill:none;stroke:#00A1BF;stroke-miterlimit:10;}
	.st2{fill:none;stroke:#2A1C00;stroke-miterlimit:10;}
	.st3{fill-rule:evenodd;clip-rule:evenodd;fill:none;stroke:#2A1C00;stroke-miterlimit:10;}
</style>
<g>
	<line class="st0" x1="155" y1="218.5" x2="203" y2="218.5"/>
</g>
<line class="st0" x1="824" y1="217.5" x2="882" y2="217.5"/>
<g>
	<g>
		<line class="st0" x1="202.5" y1="218" x2="202.5" y2="109.5"/>
	</g>
	<polyline class="st0" points="202.5,110 224.99,87.88 245.5,109.38 	"/>
	<g>
		<line class="st0" x1="245.5" y1="184" x2="245.5" y2="109"/>
	</g>
	<g>
		<line class="st0" x1="245" y1="184.5" x2="279.5" y2="184.5"/>
	</g>
	<g>
		<polyline class="st0" points="279.5,185 279.5,154.5 313.5,154.5 313.5,185 		"/>
	</g>
	<g>
		<line class="st0" x1="314" y1="184.5" x2="348.5" y2="184.5"/>
	</g>
	<g>
		<line class="st0" x1="348.5" y1="184.5" x2="348.5" y2="93"/>
	</g>
	<g>
		<polyline class="st0" points="349,82.5 355.5,82.5 355.75,82.5 355.75,93.5 355.5,93.5 348.05,93.5 		"/>
	</g>
	<g>
		<line class="st0" x1="348.5" y1="83" x2="348.5" y2="67.5"/>
	</g>
	<g>
		<polyline class="st0" points="382.8,93.5 376.3,93.5 376.05,93.5 376.05,82.5 376.3,82.5 383.75,82.5 		"/>
	</g>
	<g>
		<polyline class="st0" points="383.5,83 383.5,67.5 348,67.5 		"/>
	</g>
	<g>
		<line class="st0" x1="382.5" y1="184.5" x2="382.5" y2="93"/>
	</g>
	<g>
		<line class="st0" x1="382" y1="184.5" x2="419" y2="184.5"/>
	</g>
	<g>
		<line class="st0" x1="418.5" y1="185" x2="418.5" y2="108.5"/>
	</g>
	<g>
		<polyline class="st0" points="418,108.5 452,108.5 452.5,108.5 452.5,159.5 		"/>
	</g>
	<g>
		<line class="st0" x1="452" y1="159.5" x2="486.5" y2="159.5"/>
	</g>
	<g>
		<polyline class="st0" points="486.5,159.5 486.5,117.5 487,117.5 522,117.5 		"/>
	</g>
	<g>
		<line class="st0" x1="521.5" y1="125.5" x2="521.5" y2="117.5"/>
	</g>
	<g>
		<line class="st0" x1="521" y1="125.5" x2="529.5" y2="125.5"/>
	</g>
	<g>
		<line class="st0" x1="529.5" y1="126" x2="529.5" y2="98.5"/>
	</g>
	<g>
		<polyline class="st0" points="558.5,164.5 558.5,69.5 529.5,99.13 		"/>
	</g>
	<g>
		<line class="st0" x1="558" y1="164.5" x2="575.5" y2="164.5"/>
	</g>
	<g>
		<line class="st0" x1="575.39" y1="164.5" x2="575.39" y2="121.57"/>
	</g>
	<g>
		<line class="st0" x1="575.39" y1="116.72" x2="575.39" y2="106.5"/>
	</g>
	<line class="st0" x1="574.95" y1="107" x2="605.95" y2="107"/>
	<g>
		<line class="st0" x1="605.8" y1="116.28" x2="599.17" y2="116.28"/>
	</g>
	<g>
		<line class="st0" x1="599.7" y1="116.01" x2="599.7" y2="122.51"/>
	</g>
	<g>
		<line class="st0" x1="606.2" y1="122.01" x2="599.5" y2="122.01"/>
	</g>
	<line class="st0" x1="605.69" y1="116.73" x2="605.69" y2="106.48"/>
	<g>
		<line class="st0" x1="605.69" y1="174.04" x2="605.69" y2="122.04"/>
	</g>
	<polyline class="st0" points="606,173.5 640.5,173.5 640.5,147.5 	"/>
	<line class="st0" x1="640.5" y1="147.5" x2="699.5" y2="147.5"/>
	<line class="st0" x1="699.5" y1="147.5" x2="699.5" y2="195.5"/>
	<g>
		<line class="st0" x1="699" y1="195.5" x2="748" y2="195.5"/>
	</g>
	<g>
		<line class="st0" x1="747.5" y1="196" x2="747.5" y2="109"/>
	</g>
	<line class="st0" x1="747.5" y1="109.1" x2="769.2" y2="87.4"/>
	<g>
		<polyline class="st0" points="790.5,184 790.5,87.5 769.25,87.75 		"/>
	</g>
	<polyline class="st0" points="790,184.5 824.5,184.5 824.5,217.5 	"/>
	<line class="st0" x1="851.5" y1="152.5" x2="851.5" y2="152.5"/>
	<g>
		<line class="st0" x1="575.56" y1="122" x2="582.2" y2="122"/>
	</g>
	<g>
		<line class="st0" x1="581.67" y1="122.51" x2="581.67" y2="116.01"/>
	</g>
	<g>
		<line class="st0" x1="574.85" y1="116.5" x2="581.33" y2="116.5"/>
	</g>
</g>
<g>
	<line class="st1" x1="37" y1="392.5" x2="85" y2="392.5"/>
</g>
<g>
	<line class="st1" x1="84.5" y1="393" x2="84.5" y2="317.5"/>
</g>
<polyline class="st1" points="84.5,318 106.99,295.88 127.5,317.38 "/>
<g>
	<line class="st1" x1="127.5" y1="392" x2="127.5" y2="317"/>
</g>
<g>
	<line class="st1" x1="127" y1="392.5" x2="161.5" y2="392.5"/>
</g>
<g>
	<polyline class="st1" points="161.5,393 161.5,362.5 195.5,362.5 195.5,393 	"/>
</g>
<g>
	<line class="st1" x1="196" y1="392.5" x2="230.5" y2="392.5"/>
</g>
<g>
	<line class="st1" x1="230.5" y1="392.5" x2="230.5" y2="301"/>
</g>
<g>
	<polyline class="st1" points="231,290.5 237.5,290.5 237.75,290.5 237.75,301.5 237.5,301.5 230.05,301.5 	"/>
</g>
<g>
	<line class="st1" x1="230.5" y1="291" x2="230.5" y2="275.5"/>
</g>
<g>
	<polyline class="st1" points="264.8,301.5 258.3,301.5 258.05,301.5 258.05,290.5 258.3,290.5 265.75,290.5 	"/>
</g>
<g>
	<polyline class="st1" points="265.5,291 265.5,275.5 230,275.5 	"/>
</g>
<g>
	<line class="st1" x1="264.5" y1="392.5" x2="264.5" y2="301"/>
</g>
<g>
	<line class="st1" x1="264" y1="392.5" x2="301" y2="392.5"/>
</g>
<g>
	<line class="st1" x1="300.5" y1="393" x2="300.5" y2="316.5"/>
</g>
<g>
	<polyline class="st1" points="300,316.5 334,316.5 334.5,316.5 334.5,367.5 	"/>
</g>
<g>
	<line class="st1" x1="334" y1="367.5" x2="368.5" y2="367.5"/>
</g>
<g>
	<polyline class="st1" points="368.5,367.5 368.5,325.5 369,325.5 404,325.5 	"/>
</g>
<g>
	<line class="st1" x1="403.5" y1="333.5" x2="403.5" y2="325.5"/>
</g>
<g>
	<line class="st1" x1="403" y1="333.5" x2="411.5" y2="333.5"/>
</g>
<g>
	<line class="st1" x1="411.5" y1="334" x2="411.5" y2="306.5"/>
</g>
<g>
	<polyline class="st1" points="440.5,372.5 440.5,277.5 411.5,307.13 	"/>
</g>
<g>
	<line class="st1" x1="440" y1="372.5" x2="457.5" y2="372.5"/>
</g>
<g>
	<line class="st1" x1="457.39" y1="372.5" x2="457.39" y2="329.57"/>
</g>
<g>
	<line class="st1" x1="457.39" y1="324.72" x2="457.39" y2="314.5"/>
</g>
<line class="st1" x1="456.95" y1="315" x2="487.95" y2="315"/>
<g>
	<line class="st1" x1="487.8" y1="324.28" x2="481.17" y2="324.28"/>
</g>
<g>
	<line class="st1" x1="481.7" y1="324.01" x2="481.7" y2="330.51"/>
</g>
<g>
	<line class="st1" x1="488.2" y1="330.01" x2="481.5" y2="330.01"/>
</g>
<line class="st1" x1="487.69" y1="324.73" x2="487.69" y2="314.48"/>
<g>
	<line class="st1" x1="487.69" y1="382.04" x2="487.69" y2="330.04"/>
</g>
<polyline class="st1" points="488,381.5 522.5,381.5 522.5,355.5 "/>
<line class="st1" x1="522.5" y1="355.5" x2="581.5" y2="355.5"/>
<line class="st1" x1="581.5" y1="355.5" x2="581.5" y2="403.5"/>
<g>
	<line class="st1" x1="581" y1="403.5" x2="630" y2="403.5"/>
</g>
<g>
	<line class="st1" x1="629.5" y1="404" x2="629.5" y2="317"/>
</g>
<line class="st1" x1="629.5" y1="317.1" x2="651.2" y2="295.4"/>
<g>
	<polyline class="st1" points="672.5,392 672.5,295.5 651.25,295.75 	"/>
</g>
<polyline class="st1" points="672,392.5 706.5,392.5 706.5,425.5 "/>
<line class="st1" x1="733.5" y1="360.5" x2="733.5" y2="360.5"/>
<line class="st1" x1="706" y1="425.5" x2="737" y2="425.5"/>
<g>
	<line class="st1" x1="457.56" y1="330" x2="464.2" y2="330"/>
</g>
<g>
	<line class="st1" x1="463.67" y1="330.51" x2="463.67" y2="324.01"/>
</g>
<g>
	<line class="st1" x1="456.85" y1="324.5" x2="463.33" y2="324.5"/>
</g>
<g>
	<line class="st2" x1="298.5" y1="609" x2="298.5" y2="500.5"/>
</g>
<polyline class="st2" points="298.5,501 320.99,478.88 341.5,500.38 "/>
<g>
	<line class="st2" x1="341.5" y1="575" x2="341.5" y2="500"/>
</g>
<g>
	<line class="st2" x1="341" y1="575.5" x2="375.5" y2="575.5"/>
</g>
<g>
	<polyline class="st2" points="375.5,576 375.5,545.5 409.5,545.5 409.5,576 	"/>
</g>
<g>
	<line class="st2" x1="410" y1="575.5" x2="444.5" y2="575.5"/>
</g>
<g>
	<line class="st2" x1="444.5" y1="575.5" x2="444.5" y2="484"/>
</g>
<g>
	<polyline class="st2" points="445,473.5 451.5,473.5 451.75,473.5 451.75,484.5 451.5,484.5 444.05,484.5 	"/>
</g>
<g>
	<line class="st2" x1="444.5" y1="474" x2="444.5" y2="458.5"/>
</g>
<g>
	<polyline class="st2" points="478.8,484.5 472.3,484.5 472.05,484.5 472.05,473.5 472.3,473.5 479.75,473.5 	"/>
</g>
<g>
	<polyline class="st2" points="479.5,474 479.5,458.5 444,458.5 	"/>
</g>
<g>
	<line class="st2" x1="478.5" y1="575.5" x2="478.5" y2="484"/>
</g>
<g>
	<line class="st2" x1="478" y1="575.5" x2="515" y2="575.5"/>
</g>
<g>
	<line class="st2" x1="514.5" y1="576" x2="514.5" y2="499.5"/>
</g>
<g>
	<polyline class="st2" points="514,499.5 548,499.5 548.5,499.5 548.5,550.5 	"/>
</g>
<g>
	<line class="st2" x1="548" y1="550.5" x2="582.5" y2="550.5"/>
</g>
<g>
	<polyline class="st2" points="582.5,550.5 582.5,508.5 583,508.5 618,508.5 	"/>
</g>
<g>
	<line class="st2" x1="617.5" y1="516.5" x2="617.5" y2="508.5"/>
</g>
<g>
	<line class="st2" x1="617" y1="516.5" x2="625.5" y2="516.5"/>
</g>
<g>
	<line class="st2" x1="625.5" y1="517" x2="625.5" y2="489.5"/>
</g>
<g>
	<polyline class="st2" points="654.5,555.5 654.5,460.5 625.5,490.13 	"/>
</g>
<g>
	<line class="st2" x1="654" y1="555.5" x2="671.5" y2="555.5"/>
</g>
<g>
	<line class="st2" x1="671.39" y1="555.5" x2="671.39" y2="512.57"/>
</g>
<g>
	<line class="st2" x1="671.39" y1="507.72" x2="671.39" y2="497.5"/>
</g>
<line class="st2" x1="670.95" y1="498" x2="701.95" y2="498"/>
<g>
	<line class="st2" x1="701.8" y1="507.28" x2="695.17" y2="507.28"/>
</g>
<g>
	<line class="st2" x1="695.7" y1="507.01" x2="695.7" y2="513.51"/>
</g>
<g>
	<line class="st2" x1="702.2" y1="513.01" x2="695.5" y2="513.01"/>
</g>
<line class="st2" x1="701.69" y1="507.73" x2="701.69" y2="497.48"/>
<g>
	<line class="st2" x1="701.69" y1="565.04" x2="701.69" y2="513.04"/>
</g>
<polyline class="st2" points="702,564.5 736.5,564.5 736.5,538.5 "/>
<line class="st2" x1="736.5" y1="538.5" x2="795.5" y2="538.5"/>
<line class="st2" x1="795.5" y1="538.5" x2="795.5" y2="586.5"/>
<g>
	<line class="st2" x1="795" y1="586.5" x2="844" y2="586.5"/>
</g>
<g>
	<line class="st2" x1="843.5" y1="587" x2="843.5" y2="500"/>
</g>
<line class="st2" x1="843.5" y1="500.1" x2="865.2" y2="478.4"/>
<g>
	<polyline class="st2" points="886.5,575 886.5,478.5 865.25,478.75 	"/>
</g>
<polyline class="st2" points="886,575.5 920.5,575.5 920.5,624 "/>
<line class="st2" x1="947.5" y1="543.5" x2="947.5" y2="543.5"/>
<line class="st2" x1="920" y1="623" x2="1014.5" y2="623"/>
<g>
	<line class="st2" x1="671.56" y1="513" x2="678.2" y2="513"/>
</g>
<g>
	<line class="st2" x1="677.67" y1="513.51" x2="677.67" y2="507.01"/>
</g>
<g>
	<line class="st2" x1="670.85" y1="507.5" x2="677.33" y2="507.5"/>
</g>
<g>
	<line class="st1" x1="735.5" y1="426" x2="735.5" y2="317.5"/>
</g>
<polyline class="st1" points="735.5,318 757.99,295.88 778.5,317.38 "/>
<g>
	<line class="st1" x1="778.5" y1="392" x2="778.5" y2="317"/>
</g>
<g>
	<line class="st1" x1="778" y1="392.5" x2="812.5" y2="392.5"/>
</g>
<g>
	<polyline class="st1" points="812.5,393 812.5,362.5 846.5,362.5 846.5,393 	"/>
</g>
<g>
	<line class="st1" x1="847" y1="392.5" x2="881.5" y2="392.5"/>
</g>
<g>
	<line class="st1" x1="881.5" y1="392.5" x2="881.5" y2="301"/>
</g>
<g>
	<polyline class="st1" points="882,290.5 888.5,290.5 888.75,290.5 888.75,301.5 888.5,301.5 881.05,301.5 	"/>
</g>
<g>
	<line class="st1" x1="881.5" y1="291" x2="881.5" y2="275.5"/>
</g>
<g>
	<polyline class="st1" points="915.8,301.5 909.3,301.5 909.05,301.5 909.05,290.5 909.3,290.5 916.75,290.5 	"/>
</g>
<g>
	<line class="st1" x1="916.5" y1="291" x2="916.5" y2="275.5"/>
</g>
<g>
	<line class="st1" x1="915.5" y1="392.5" x2="915.5" y2="301"/>
</g>
<g>
	<line class="st1" x1="915" y1="392.5" x2="977" y2="392.5"/>
</g>
<g>
	<line class="st1" x1="916.5" y1="275.5" x2="881" y2="275.5"/>
</g>
<polyline class="st2" points="0,623 103,623 103,538.5 "/>
<line class="st2" x1="103" y1="538.5" x2="159" y2="538.5"/>
<line class="st2" x1="158.5" y1="538.5" x2="158.5" y2="586.5"/>
<g>
	<line class="st2" x1="158" y1="586.5" x2="207" y2="586.5"/>
</g>
<g>
	<line class="st2" x1="206.5" y1="587" x2="206.5" y2="500"/>
</g>
<line class="st2" x1="206.5" y1="500.1" x2="228.2" y2="478.4"/>
<g>
	<polyline class="st2" points="249.5,575 249.5,478.5 228.25,478.75 	"/>
</g>
<polyline class="st2" points="249,575.5 283.5,575.5 283.5,608.5 283.5,609.5 299,609.5 "/>
<line class="st2" x1="310.5" y1="543.5" x2="310.5" y2="543.5"/>
<rect x="122.5" y="555.5" class="st3" width="17" height="17"/>
<rect x="122.5" y="580.5" class="st3" width="17" height="17"/>
<rect x="220.5" y="502.5" class="st3" width="15" height="25"/>
<rect x="220.5" y="538.5" class="st3" width="15" height="25"/>
<rect x="590.5" y="521.5" class="st3" width="17" height="17"/>
<ellipse class="st3" cx="320" cy="528.5" rx="8.5" ry="15"/>
<rect x="457" y="498.5" class="st3" width="12" height="12"/>
<rect x="456.5" y="523.5" class="st3" width="12" height="12"/>
<ellipse class="st3" cx="865" cy="514.5" rx="5.67" ry="10"/>
<line class="st2" x1="678.5" y1="524.5" x2="695.5" y2="524.5"/>
<line class="st2" x1="678.5" y1="532.5" x2="695.5" y2="532.5"/>
<line class="st2" x1="678.5" y1="540.5" x2="695.5" y2="540.5"/>
<ellipse class="st3" cx="865" cy="550.5" rx="5.67" ry="10"/>
</svg>
